<?xml version="1.0" encoding="UTF-8" standalone="no"?><svg xmlns="http://www.w3.org/2000/svg" xmlns:xlink="http://www.w3.org/1999/xlink"><symbol viewBox="0 0 80 80" id="delete"><title>delete</title><path d="M70 10.208v3.125h-4.167l-5 60.625c0 1.667-.59 3.09-1.77 4.27C57.882 79.41 56.457 80 54.792 80H25.416c-1.667 0-3.09-.59-4.27-1.77-1.182-1.18-1.772-2.605-1.772-4.272l-5-60.625H10v-3.125h16.667V6.042c0-1.667.59-3.09 1.77-4.27C29.618.59 31.043 0 32.708 0h14.585c1.666 0 3.09.59 4.27 1.77 1.18 1.18 1.77 2.605 1.77 4.272v4.166H70zM29.792 6.042v4.166h20.416V6.042c0-1.945-.972-2.917-2.916-2.917H32.708c-1.944 0-2.916.972-2.916 2.917zM57.917 73.75l4.79-60.417H17.5l4.792 60.417v.208c0 1.945 1.04 2.917 3.125 2.917h29.375c2.083 0 3.125-.972 3.125-2.917v-.208zm-19.375-3.542V20h2.916v50.208h-2.916zM53.332 20l-2.29 50.208h-2.917L50.208 20h3.125zm-23.75 0l2.293 50.208h-2.917L26.668 20h2.915z" fill="currentColor" fill-rule="evenodd"/></symbol><symbol viewBox="0 0 80 80" id="edit"><title>edit</title><path d="M57.472 32.56l-27.87 27.98L19.46 50.398l27.98-27.87L57.472 32.56zM64.05 21.3c.668.67.984 1.488.947 2.454-.037.966-.427 1.82-1.17 2.564l-5.017 5.016L48.666 21.19l5.016-5.017c.743-.743 1.598-1.133 2.564-1.17.966-.037 1.784.28 2.453.947l5.35 5.35zM18.567 51.958l9.476 9.476L15 65l3.567-13.043z" fill="currentColor" fill-rule="evenodd"/></symbol><symbol viewBox="0 0 80 80" id="filter"><title>filter</title><path d="M40 15c6.92 0 12.816.874 17.69 2.623C62.563 19.37 65 21.473 65 23.93c0 .89-.335 1.71-1.004 2.454-.224.223-.93 1.08-2.12 2.567a1045.88 1045.88 0 0 1-2.96 3.684c-.78.967-1.822 2.27-3.124 3.906-1.302 1.637-2.4 3.07-3.292 4.297a88.84 88.84 0 0 0-2.68 3.906c-.89 1.377-1.56 2.567-2.008 3.572-.446 1.004-.67 1.804-.67 2.4V60.424c0 1.265-.706 2.344-2.12 3.237C43.61 64.555 41.935 65 40 65s-3.61-.446-5.022-1.34c-1.414-.892-2.12-1.97-2.12-3.236v-9.71c0-2.53-5.544-10.565-16.63-24.107-.82-.967-1.228-1.86-1.228-2.678 0-2.457 2.437-4.56 7.31-6.307C27.184 15.873 33.08 15 40 15zm0 14.286c5.208 0 9.784-.54 13.728-1.62 3.943-1.077 5.915-2.324 5.915-3.737 0-1.415-1.972-2.66-5.915-3.74-3.944-1.08-8.52-1.62-13.728-1.62s-9.784.54-13.728 1.62c-3.943 1.08-5.915 2.325-5.915 3.74 0 1.412 1.972 2.66 5.915 3.737 3.944 1.08 8.52 1.62 13.728 1.62z" fill="currentColor" fill-rule="evenodd"/></symbol><symbol viewBox="0 0 80 80" id="form"><title>form</title><path d="M17.144 51.574c-2.38 0-4.405.834-6.072 2.5-1.667 1.667-2.5 3.69-2.5 6.072 0 2.38.833 4.405 2.5 6.072 1.667 1.667 3.69 2.5 6.072 2.5 2.38 0 4.405-.833 6.072-2.5 1.666-1.667 2.5-3.69 2.5-6.072 0-2.38-.834-4.405-2.5-6.072-1.667-1.666-3.69-2.5-6.072-2.5zm0-2.857c3.095 0 5.774 1.13 8.036 3.393 2.262 2.262 3.393 4.94 3.393 8.036 0 3.096-1.13 5.774-3.393 8.036-2.262 2.262-4.94 3.393-8.036 3.393-3.096 0-5.774-1.13-8.036-3.393-2.262-2.262-3.393-4.94-3.393-8.036 0-3.095 1.13-5.774 3.393-8.036 2.262-2.262 4.94-3.393 8.036-3.393zm45.538-2.857H17.144c-3.93 0-7.292 1.4-10.09 4.196-2.798 2.798-4.197 6.16-4.197 10.09 0 3.93 1.4 7.292 4.197 10.09 2.798 2.798 6.16 4.197 10.09 4.197H62.86c3.93 0 7.293-1.4 10.09-4.197 2.798-2.798 4.197-6.16 4.197-10.09 0-3.93-1.428-7.292-4.286-10.09-2.856-2.797-6.25-4.196-10.178-4.196zm.18-2.858c4.76 0 8.81 1.667 12.142 5 3.334 3.334 5 7.382 5 12.144 0 4.762-1.666 8.81-5 12.144-3.333 3.333-7.38 5-12.143 5H17.145c-4.762 0-8.81-1.667-12.144-5-3.333-3.334-5-7.382-5-12.144 0-4.762 1.667-8.81 5-12.143 3.334-3.334 7.382-5 12.144-5H62.86zm0-31.43c-2.382 0-4.406.833-6.073 2.5-1.668 1.667-2.5 3.69-2.5 6.072 0 2.38.832 4.405 2.5 6.072 1.666 1.666 3.69 2.5 6.07 2.5 2.382 0 4.406-.834 6.073-2.5 1.666-1.667 2.5-3.69 2.5-6.072 0-2.38-.834-4.405-2.5-6.072-1.667-1.667-3.69-2.5-6.072-2.5zm0-2.857c3.094 0 5.773 1.13 8.035 3.393 2.262 2.262 3.393 4.94 3.393 8.036 0 3.095-1.13 5.774-3.393 8.036-2.262 2.262-4.94 3.393-8.036 3.393-3.095 0-5.773-1.13-8.035-3.393-2.262-2.262-3.393-4.94-3.393-8.036 0-3.096 1.13-5.774 3.393-8.036 2.262-2.262 4.94-3.393 8.036-3.393zM17.32 5.857c-3.928 0-7.32 1.4-10.18 4.197-2.856 2.798-4.285 6.16-4.285 10.09 0 3.93 1.4 7.292 4.197 10.09 2.798 2.797 6.16 4.196 10.09 4.196H62.86c3.93 0 7.293-1.4 10.09-4.196 2.798-2.798 4.197-6.16 4.197-10.09 0-3.93-1.4-7.292-4.196-10.09-2.797-2.798-6.16-4.197-10.09-4.197H17.323zM17.144 3H62.86c4.763 0 8.81 1.667 12.144 5 3.334 3.334 5 7.382 5 12.144 0 4.762-1.666 8.81-5 12.143-3.333 3.334-7.38 5-12.143 5H17.145c-4.762 0-8.81-1.666-12.144-5-3.333-3.333-5-7.38-5-12.143C0 15.382 1.667 11.334 5 8c3.334-3.333 7.382-5 12.144-5z" fill="currentColor" fill-rule="evenodd"/></symbol><symbol viewBox="0 0 80 80" id="github"><title>github</title><path d="M40 10c8.304 0 15.38 3.013 21.228 9.04C67.076 25.067 70 32.32 70 40.804c0 6.696-1.92 12.723-5.76 18.08C60.403 64.24 55.49 67.946 49.51 70h-.537c-1.07 0-1.607-.536-1.607-1.607a605 605 0 0 1 .067-3.014c.045-1.92.067-3.684.067-5.29 0-2.59-.714-4.51-2.143-5.76 4.107-.535 7.433-1.852 9.978-3.95 2.544-2.1 3.817-5.826 3.817-11.184 0-3.214-1.027-5.982-3.08-8.303.892-2.59.803-5.313-.268-8.17h-.67c-2.054 0-4.598 1.072-7.634 3.214-2.59-.714-5.09-1.07-7.5-1.07s-4.91.356-7.5 1.07c-3.036-2.142-5.58-3.214-7.634-3.214h-.67c-1.07 2.857-1.16 5.58-.267 8.17-2.055 2.32-3.082 5.09-3.082 8.303 0 5.358 1.25 9.085 3.75 11.183 2.5 2.098 5.804 3.415 9.91 3.95-.98.983-1.606 2.366-1.874 4.152a7.677 7.677 0 0 1-3.482.804c-2.232 0-3.973-1.116-5.223-3.35-1.162-1.963-2.725-3.034-4.69-3.213-1.874 0-1.92.625-.133 1.875 1.34.715 2.456 2.232 3.348 4.554.09.357.268.78.536 1.272.27.49 1.006 1.14 2.21 1.942 1.206.804 2.657 1.205 4.354 1.205 1.25 0 2.232-.088 2.946-.266v5.223c0 .982-.49 1.473-1.473 1.473h-.536c-6.07-2.054-11.003-5.737-14.798-11.05C11.897 53.64 10 47.59 10 40.805c0-8.483 2.924-15.737 8.772-21.764C24.622 13.013 31.696 10 40 10z" fill="currentColor" fill-rule="evenodd"/></symbol><symbol viewBox="0 0 80 80" id="list"><title>list</title><path d="M76.667 3.333H3.333v73.334h73.334V3.333zM80 0v80H0V0h80zM26.667 21.667v-3.334h40v3.334h-40zm0 20v-3.334h40v3.334h-40zm0 20v-3.334h40v3.334h-40zM13.333 20c0-2.222 1.11-3.333 3.334-3.333C18.89 16.667 20 17.777 20 20c0 2.222-1.11 3.333-3.333 3.333s-3.334-1.11-3.334-3.333zm0 20c0-2.222 1.11-3.333 3.334-3.333C18.89 36.667 20 37.777 20 40c0 2.222-1.11 3.333-3.333 3.333s-3.334-1.11-3.334-3.333zm0 20c0-2.222 1.11-3.333 3.334-3.333C18.89 56.667 20 57.777 20 60c0 2.222-1.11 3.333-3.333 3.333s-3.334-1.11-3.334-3.333z" fill="currentColor" fill-rule="evenodd"/></symbol><symbol viewBox="0 0 80 80" id="plus"><title>plus</title><path d="M65 44.115H44.115V65h-8.23V44.115H15v-8.23h20.885V15h8.23v20.885H65v8.23z" fill="currentColor" fill-rule="evenodd"/></symbol><symbol viewBox="0 0 80 80" id="remove"><title>remove</title><path d="M64.352 57.057c.346.348.518.782.518 1.302s-.172.954-.518 1.3l-4.922 4.82c-.345.346-.734.52-1.166.52-.518 0-.95-.174-1.295-.52L40 47.42 23.03 64.48c-.344.346-.733.52-1.165.52-.518 0-.95-.174-1.295-.52l-4.922-4.82c-.346-.346-.518-.78-.518-1.3s.172-.955.518-1.303L32.746 40 15.648 23.073c-.864-.868-.864-1.736 0-2.604l4.792-4.95c.52-.346.95-.52 1.296-.52.518 0 .95.174 1.295.52L40 32.45 56.97 15.52c.517-.346.95-.52 1.294-.52.518 0 .95.174 1.296.52l4.792 4.95c.864.867.864 1.69 0 2.473L47.254 39.87l17.098 17.187z" fill="currentColor" fill-rule="evenodd"/></symbol></svg>
