<svg version="1.1" xmlns="http://www.w3.org/2000/svg" xmlns:xlink="http://www.w3.org/1999/xlink">
  <symbol viewBox="0 0 49 50" id="github">
    <path fill="currentColor" d="M24.3055556,0.694444444 C31.0329852,0.694444444 36.7657704,3.13585 41.5039056,8.01866296 C46.2420426,12.9014759 48.6111111,18.7789352 48.6111111,25.6510407 C48.6111111,31.0763889 47.0558444,35.9592019 43.945313,40.2994796 C40.8347796,44.6397574 36.8561926,47.6417815 32.0095481,49.3055556 L31.5755204,49.3055556 C30.7074648,49.3055556 30.273437,48.8715278 30.273437,48.0034722 C30.273437,47.9311333 30.2915222,47.1173315 30.3276907,45.5620667 C30.3638593,44.0068 30.3819444,42.5781259 30.3819444,41.2760407 C30.3819444,39.1782407 29.8032407,37.6229741 28.6458333,36.6102426 C31.9733796,36.1762148 34.6679685,35.1092296 36.7296,33.4092889 C38.7912333,31.7093463 39.8220481,28.689237 39.8220481,24.3489593 C39.8220481,21.7447926 38.990163,19.5023148 37.3263889,17.6215278 C38.0497685,15.5237259 37.9774296,13.3174185 37.1093741,11.0026037 L36.5668407,11.0026037 C34.9030667,11.0026037 32.8414352,11.8706593 30.3819444,13.6067704 C28.2841444,13.0280667 26.2586815,12.7387148 24.3055556,12.7387148 C22.3524296,12.7387148 20.3269667,13.0280667 18.2291667,13.6067704 C15.7696759,11.8706593 13.7080444,11.0026037 12.0442704,11.0026037 L11.501737,11.0026037 C10.6336815,13.3174185 10.5613426,15.5237259 11.2847222,17.6215278 C9.62094815,19.5023148 8.78906296,21.7447926 8.78906296,24.3489593 C8.78906296,28.689237 9.80179444,31.7093463 11.8272574,33.4092889 C13.8527204,35.1092296 16.5292241,36.1762148 19.8567704,36.6102426 C19.0610537,37.4059611 18.554687,38.5272 18.3376741,39.9739593 C17.4696185,40.4079852 16.5292241,40.625 15.5164926,40.625 C13.7080444,40.625 12.2974537,39.7207759 11.2847222,37.9123259 C10.3443296,36.3208907 9.07841481,35.4528352 7.48697963,35.3081593 C5.96788148,35.3081593 5.93171296,35.8145259 7.37847222,36.8272574 C8.46354074,37.4059611 9.36776667,38.6357056 10.0911463,40.5164926 C10.1634833,40.8058444 10.3081593,41.14945 10.5251741,41.5473093 C10.742187,41.9451685 11.3389759,42.4696185 12.3155389,43.1206593 C13.2921,43.7717019 14.4675926,44.0972222 15.8420148,44.0972222 C16.8547444,44.0972222 17.650463,44.0248852 18.2291667,43.8802074 L18.2291667,48.1119796 C18.2291667,48.9076963 17.8313074,49.3055556 17.0355907,49.3055556 L16.601563,49.3055556 C11.6825815,47.6417815 7.68590926,44.6578407 4.61154444,40.3537333 C1.53718148,36.0496241 0,31.1487259 0,25.6510407 C0,18.7789352 2.36906852,12.9014759 7.10720556,8.01866296 C11.8453407,3.13585 17.5781259,0.694444444 24.3055556,0.694444444 L24.3055556,0.694444444 Z"></path>
  </symbol>
  <symbol viewBox="0 0 50 50" id="circle">
    <circle cx="25" cy="25" r="24" stroke-width="2" fill="none" stroke="currentColor"></circle>
  </symbol>
  <symbol viewBox="0 0 50 49" id="cross">
    <path fill="currentColor" d="M50.4088542,41.0058588 C50.7473958,41.3444005 50.9166667,41.7675787 50.9166667,42.2753912 C50.9166667,42.7832037 50.7473958,43.2063797 50.4088542,43.5449213 L45.5846343,48.2421875 C45.2460927,48.5807292 44.8652338,48.75 44.4420578,48.75 C43.9342453,48.75 43.5110672,48.5807292 43.1725255,48.2421875 L26.5416667,31.6113287 L9.91080783,48.2421875 C9.57226617,48.5807292 9.19140733,48.75 8.76822917,48.75 C8.26041667,48.75 7.83724067,48.5807292 7.498699,48.2421875 L2.67447917,43.5449213 C2.3359375,43.2063797 2.16666667,42.7832037 2.16666667,42.2753912 C2.16666667,41.7675787 2.3359375,41.3444005 2.67447917,41.0058588 L19.4322917,24.375 L2.67447917,7.87109267 C1.828125,7.02474067 1.828125,6.17838433 2.67447917,5.33203233 L7.37174533,0.5078125 C7.87955783,0.169270833 8.30273383,0 8.6412755,0 C9.149088,0 9.57226617,0.169270833 9.91080783,0.5078125 L26.5416667,17.0117177 L43.1725255,0.5078125 C43.680338,0.169270833 44.1035162,0 44.4420578,0 C44.9498703,0 45.3730463,0.169270833 45.711588,0.5078125 L50.4088542,5.33203233 C51.2552083,6.17838433 51.2552083,6.98242133 50.4088542,7.74414117 L33.6510417,24.2480463 L50.4088542,41.0058588 Z"></path>
  </symbol>
</svg>
